<svg xmlns="http://www.w3.org/2000/svg" version="1.1" xmlns:xlink="http://www.w3.org/1999/xlink" xmlns:svgjs="http://svgjs.dev/svgjs" width="1000" height="159" viewBox="0 0 1000 159"><g transform="matrix(1,0,0,1,-0.6060605488839315,0.38293396744097663)"><svg viewBox="0 0 396 63" data-background-color="#ffffff" preserveAspectRatio="xMidYMid meet" height="159" width="1000" xmlns="http://www.w3.org/2000/svg" xmlns:xlink="http://www.w3.org/1999/xlink"><g id="tight-bounds" transform="matrix(1,0,0,1,0.24000002264199338,-0.15172855313699074)"><svg viewBox="0 0 395.52 63.30345710627401" height="63.30345710627401" width="395.52"><g><svg viewBox="0 0 395.52 63.30345710627401" height="63.30345710627401" width="395.52"><g><svg viewBox="0 0 395.52 63.30345710627401" height="63.30345710627401" width="395.52"><g id="textblocktransform"><svg viewBox="0 0 395.52 63.30345710627401" height="63.30345710627401" width="395.52" id="textblock"><g><svg viewBox="0 0 395.52 63.30345710627401" height="63.30345710627401" width="395.52"><g transform="matrix(1,0,0,1,0,0)"><svg width="395.52" viewBox="0.9000000357627869 -36 312.3600158691406 50" height="63.30345710627401" data-palette-color="#ea2919"><path d="M4.35 4.35L4.35 4.35Q3.1 4.35 2 3.65 0.9 2.95 0.9 1.85L0.9 1.85Q0.9 1.3 1.15 0.53 1.4-0.25 1.6-0.9L1.6-0.9Q3.2-5.8 4.6-10.05 6-14.3 7.4-18.3 8.8-22.3 10.38-26.3 11.95-30.3 13.9-34.65L13.9-34.65Q12-34.3 10.53-33.63 9.05-32.95 8.15-32.43 7.25-31.9 6.95-31.9L6.95-31.9Q6.75-31.9 6.38-32.13 6-32.35 5.7-32.68 5.4-33 5.4-33.25L5.4-33.25Q6.7-33.8 8.47-34.45 10.25-35.1 12.3-35.55 14.35-36 16.45-36L16.45-36Q18.65-36 20.93-35.4 23.2-34.8 25.1-33.58 27-32.35 28.15-30.55 29.3-28.75 29.3-26.35L29.3-26.35Q29.3-23.75 28.15-21.88 27-20 25.1-18.73 23.2-17.45 21-16.68 18.8-15.9 16.63-15.48 14.45-15.05 12.75-14.93 11.05-14.8 10.25-14.8L10.25-14.8 9.75-14.8Q8.25-9.65 6.88-4.65 5.5 0.35 4.35 4.35ZM9.95-15.6L9.95-15.6Q12.7-15.75 15.53-16.5 18.35-17.25 20.7-18.68 23.05-20.1 24.5-22.23 25.95-24.35 25.95-27.2L25.95-27.2Q25.95-29.9 24.68-31.6 23.4-33.3 21.33-34.13 19.25-34.95 16.9-34.95L16.9-34.95Q15.05-31.3 13.3-26.2 11.55-21.1 9.95-15.6ZM34 1.3L34 1.3Q32.3 1.3 31.32 0.4 30.35-0.5 30.35-1.95L30.35-1.95Q30.35-3.45 31.05-5.1 31.75-6.75 32.42-8.38 33.1-10 33.1-11.3L33.1-11.3Q33.1-12.9 32.17-13.68 31.25-14.45 30.3-15.1L30.3-15.1Q29.15-12.15 27.9-9.5 26.65-6.85 25.85-5.5L25.85-5.5 25.4-6.35Q26.1-7.65 27.22-10.15 28.35-12.65 29.45-15.85L29.45-15.85Q28.95-16.35 28.95-17.05L28.95-17.05Q28.95-18.55 29.8-19.5 30.65-20.45 31.05-20.45L31.05-20.45Q31.6-20.45 31.67-19.98 31.75-19.5 31.75-19.25L31.75-19.25Q31.75-19 31.47-18.28 31.2-17.55 31.2-17.4L31.2-17.4Q31.2-16.7 31.97-16.13 32.75-15.55 33.75-14.83 34.75-14.1 35.52-13.08 36.3-12.05 36.3-10.45L36.3-10.45Q36.3-8.95 35.67-7.4 35.05-5.85 34.42-4.45 33.8-3.05 33.8-2L33.8-2Q33.8-1.1 34.25-0.8 34.7-0.5 35.3-0.5L35.3-0.5Q36.5-0.5 37.77-1.25 39.05-2 40.25-3.15 41.45-4.3 42.4-5.58 43.35-6.85 43.8-7.95L43.8-7.95 44.45-7.45Q43.5-5.35 41.85-3.33 40.2-1.3 38.17 0 36.15 1.3 34 1.3ZM45.15 2.35L45.15 2.35Q43.6 2.35 42.52 1.33 41.45 0.3 41.45-1.8L41.45-1.8Q41.45-3.6 42.25-5.68 43.05-7.75 44.45-9.78 45.85-11.8 47.62-13.48 49.4-15.15 51.37-16.15 53.35-17.15 55.3-17.15L55.3-17.15Q57.25-17.15 58.55-16.13 59.85-15.1 59.85-13.4L59.85-13.4Q59.85-12.15 59.17-11.7 58.5-11.25 57.4-11.25L57.4-11.25Q57.5-11.65 57.57-12.13 57.65-12.6 57.65-13L57.65-13Q57.65-14.15 57.1-14.98 56.55-15.8 55.2-15.8L55.2-15.8Q53.8-15.8 52.35-14.83 50.9-13.85 49.55-12.23 48.2-10.6 47.15-8.7 46.1-6.8 45.5-4.95 44.9-3.1 44.9-1.65L44.9-1.65Q44.9 0.3 46.25 0.3L46.25 0.3Q47.4 0.3 48.75-0.78 50.1-1.85 51.52-3.53 52.95-5.2 54.25-7 55.55-8.8 56.55-10.3L56.55-10.3Q56.75-10.6 56.8-10.6L56.8-10.6Q57.1-10.55 57.57-10.4 58.05-10.25 58.4-10 58.75-9.75 58.75-9.35L58.75-9.35Q58.75-8.9 58.3-8.13 57.85-7.35 57.3-6.35 56.75-5.35 56.3-4.33 55.85-3.3 55.85-2.4L55.85-2.4Q55.85-1.65 56.25-0.93 56.65-0.2 57.55-0.2L57.55-0.2Q58.9-0.2 61.1-2.18 63.3-4.15 65.55-8.1L65.55-8.1 66.05-7.6Q65-4.9 63.35-2.85 61.7-0.8 59.82 0.35 57.95 1.5 56.15 1.5L56.15 1.5Q54.3 1.5 53.42 0.4 52.55-0.7 52.55-2L52.55-2Q52.55-2.3 52.6-2.68 52.65-3.05 52.7-3.45L52.7-3.45Q50.55-0.55 48.77 0.9 47 2.35 45.15 2.35ZM68.79 2.3L68.79 2.3Q66.64 2.3 65.49 1.05 64.34-0.2 64.34-2.65L64.34-2.65Q64.34-4.85 65.17-8.08 65.99-11.3 67.24-14.7L67.24-14.7Q66.74-14.8 66.29-14.88 65.84-14.95 65.44-15.1L65.44-15.1 65.44-16Q65.84-15.95 66.39-15.9 66.94-15.85 67.64-15.8L67.64-15.8Q68.69-18.5 69.89-21.03 71.09-23.55 72.27-25.53 73.44-27.5 74.52-28.68 75.59-29.85 76.34-29.85L76.34-29.85Q76.74-29.85 77.07-29.58 77.39-29.3 77.39-28.75L77.39-28.75Q77.39-27.9 76.34-25.98 75.29-24.05 73.74-21.4 72.19-18.75 70.74-15.65L70.74-15.65Q71.19-15.65 71.67-15.65 72.14-15.65 72.59-15.65L72.59-15.65Q74.24-15.65 76.07-15.7 77.89-15.75 79.74-15.95L79.74-15.95 79.74-15.05Q76.99-14.75 74.82-14.6 72.64-14.45 70.94-14.45L70.94-14.45Q70.74-14.45 70.57-14.45 70.39-14.45 70.19-14.45L70.19-14.45Q69.04-11.8 68.24-9 67.44-6.2 67.44-3.55L67.44-3.55Q67.44-1.4 68.09-0.48 68.74 0.45 70.24 0.45L70.24 0.45Q72.84 0.45 75.34-1.85 77.84-4.15 79.74-8.1L79.74-8.1 80.39-7.6Q79.19-4.8 77.37-2.55 75.54-0.3 73.34 1 71.14 2.3 68.79 2.3ZM82.39 1.3L82.39 1.3Q80.44 1.3 79.49 0.08 78.54-1.15 78.54-2.9L78.54-2.9Q78.54-4.05 78.97-5.8 79.39-7.55 80.09-9.47 80.79-11.4 81.72-13.1 82.64-14.8 83.69-15.88 84.74-16.95 85.74-16.95L85.74-16.95Q86.19-16.95 86.52-16.68 86.84-16.4 86.84-15.85L86.84-15.85Q86.84-15.25 86.07-13.9 85.29-12.55 84.24-10.8 83.19-9.05 82.42-7.13 81.64-5.2 81.64-3.45L81.64-3.45Q81.64-1.65 82.24-1.05 82.84-0.45 84.09-0.45L84.09-0.45Q85.79-0.45 87.72-2.15 89.64-3.85 91.79-8.1L91.79-8.1 92.24-7.6Q90.79-3.3 88.07-1 85.34 1.3 82.39 1.3ZM88.39-21.6L88.39-21.6Q87.59-21.6 86.97-22 86.34-22.4 86.34-23.25L86.34-23.25Q86.34-24.3 87.57-25.08 88.79-25.85 89.99-25.85L89.99-25.85Q90.74-25.85 91.19-25.5 91.64-25.15 91.64-24.3L91.64-24.3Q91.64-23.35 90.62-22.48 89.59-21.6 88.39-21.6ZM105.69 1.9L105.69 1.9Q104.29 1.9 103.29 0.95 102.29 0 101.71-1.45 101.14-2.9 100.86-4.42 100.59-5.95 100.59-7.1L100.59-7.1Q101.14-7.1 102.19-7.38 103.24-7.65 104.34-8.22 105.44-8.8 106.21-9.73 106.99-10.65 106.99-11.9L106.99-11.9Q106.99-12.95 106.24-13.55 105.49-14.15 104.49-14.15L104.49-14.15Q102.94-14.15 101.59-13.08 100.24-12 99.16-10.28 98.09-8.55 97.24-6.6 96.39-4.65 95.79-2.9 95.19-1.15 94.79 0L94.79 0Q94.49 0.9 93.94 1.23 93.39 1.55 92.79 1.55L92.79 1.55Q91.94 1.55 91.56 0.85 91.19 0.15 91.11-0.93 91.04-2 91.04-3.15L91.04-3.15Q91.04-5.75 91.89-9.15 92.74-12.55 94.16-16.23 95.59-19.9 97.29-23.35 98.99-26.8 100.69-29.6 102.39-32.4 103.84-34.05 105.29-35.7 106.19-35.7L106.19-35.7Q106.89-35.7 107.31-34.75 107.74-33.8 107.74-32.45L107.74-32.45Q107.74-30.75 106.99-28.63 106.24-26.5 104.86-24.35 103.49-22.2 101.61-20.3 99.74-18.4 97.54-17.05L97.54-17.05Q95.89-13 95.06-9.18 94.24-5.35 94.24-2.75L94.24-2.75Q95.04-4.75 96.16-7.15 97.29-9.55 98.74-11.75 100.19-13.95 101.89-15.35 103.59-16.75 105.44-16.75L105.44-16.75Q107.29-16.75 108.59-15.45 109.89-14.15 109.89-12.3L109.89-12.3Q109.89-10.7 109.06-9.58 108.24-8.45 107.06-7.78 105.89-7.1 104.71-6.78 103.54-6.45 102.79-6.45L102.79-6.45Q102.84-6.05 103.09-5 103.34-3.95 103.81-2.8 104.29-1.65 104.99-0.83 105.69 0 106.69 0L106.69 0Q108.14 0 109.44-1.1 110.74-2.2 111.91-4.03 113.09-5.85 114.09-8.15L114.09-8.15 114.59-7.65Q113.89-5.2 112.44-3.03 110.99-0.85 109.21 0.53 107.44 1.9 105.69 1.9ZM98.39-19.05L98.39-19.05Q100.69-20.9 102.41-23.25 104.14-25.6 105.09-27.78 106.04-29.95 106.04-31.2L106.04-31.2Q106.04-31.45 106.01-31.55 105.99-31.65 105.89-31.65L105.89-31.65Q105.39-31.65 104.16-29.9 102.94-28.15 101.39-25.28 99.84-22.4 98.39-19.05ZM136.28 4.35L136.28 4.35Q133.58 4.35 131.18 3.38 128.78 2.4 127.31 0.4 125.83-1.6 125.83-4.6L125.83-4.6Q125.83-7.2 126.86-8.65 127.88-10.1 129.38-10.7 130.88-11.3 132.23-11.3L132.23-11.3Q130.88-9.85 130.18-8.1 129.48-6.35 129.48-4.6L129.48-4.6Q129.48-2.75 130.31-1.15 131.13 0.45 132.83 1.43 134.53 2.4 137.13 2.4L137.13 2.4Q139.38 2.4 141.53 1.58 143.68 0.75 145.06-0.88 146.43-2.5 146.43-4.9L146.43-4.9Q146.43-7.05 145.33-8.6 144.23-10.15 142.51-11.35 140.78-12.55 138.83-13.65 136.88-14.75 135.16-15.98 133.43-17.2 132.33-18.8 131.23-20.4 131.23-22.65L131.23-22.65Q131.23-24.75 132.23-27.05 133.23-29.35 135.11-31.4 136.98-33.45 139.61-34.73 142.23-36 145.48-36L145.48-36Q148.43-36 149.58-34.58 150.73-33.15 150.73-31L150.73-31Q150.73-29.2 150.11-27.13 149.48-25.05 148.58-23.18 147.68-21.3 146.88-20L146.88-20Q145.98-20.2 145.61-20.78 145.23-21.35 145.23-22.15L145.23-22.15Q145.23-23.2 145.68-24.55 146.13-25.9 146.71-27.35 147.28-28.8 147.73-30.18 148.18-31.55 148.18-32.65L148.18-32.65Q148.18-33.65 147.58-34.23 146.98-34.8 145.38-34.8L145.38-34.8Q143.03-34.8 141.03-33.7 139.03-32.6 137.53-30.88 136.03-29.15 135.21-27.25 134.38-25.35 134.38-23.8L134.38-23.8Q134.38-21.95 135.46-20.63 136.53-19.3 138.23-18.23 139.93-17.15 141.86-16.07 143.78-15 145.48-13.7 147.18-12.4 148.26-10.63 149.33-8.85 149.33-6.3L149.33-6.3Q149.33-3.7 148.18-1.73 147.03 0.25 145.11 1.6 143.18 2.95 140.88 3.65 138.58 4.35 136.28 4.35ZM156.53 1.3L156.53 1.3Q154.58 1.3 153.63 0.08 152.68-1.15 152.68-2.9L152.68-2.9Q152.68-4.05 153.11-5.8 153.53-7.55 154.23-9.47 154.93-11.4 155.86-13.1 156.78-14.8 157.83-15.88 158.88-16.95 159.88-16.95L159.88-16.95Q160.33-16.95 160.66-16.68 160.98-16.4 160.98-15.85L160.98-15.85Q160.98-15.25 160.21-13.9 159.43-12.55 158.38-10.8 157.33-9.05 156.56-7.13 155.78-5.2 155.78-3.45L155.78-3.45Q155.78-1.65 156.38-1.05 156.98-0.45 158.23-0.45L158.23-0.45Q159.93-0.45 161.86-2.15 163.78-3.85 165.93-8.1L165.93-8.1 166.38-7.6Q164.93-3.3 162.21-1 159.48 1.3 156.53 1.3ZM162.53-21.6L162.53-21.6Q161.73-21.6 161.11-22 160.48-22.4 160.48-23.25L160.48-23.25Q160.48-24.3 161.71-25.08 162.93-25.85 164.13-25.85L164.13-25.85Q164.88-25.85 165.33-25.5 165.78-25.15 165.78-24.3L165.78-24.3Q165.78-23.35 164.75-22.48 163.73-21.6 162.53-21.6ZM181.13 1L181.13 1Q179.38 1 178.5 0.1 177.63-0.8 177.63-2.2L177.63-2.2Q177.63-3.25 178-4.4 178.38-5.55 178.73-6.78 179.08-8 179.08-9.15L179.08-9.15Q179.08-10.55 178.5-11.08 177.93-11.6 177.08-11.6L177.08-11.6Q175.53-11.6 173.93-10.33 172.33-9.05 170.83-7.08 169.33-5.1 168.03-3 166.73-0.9 165.73 0.75L165.73 0.75Q164.93 0.75 164.2 0.48 163.48 0.2 163.08-0.35L163.08-0.35Q163.08-0.6 163.6-1.9 164.13-3.2 164.83-5.1 165.53-7 166.08-9 166.63-11 166.63-12.65L166.63-12.65Q166.93-13 167.58-13.35 168.23-13.7 168.93-13.7L168.93-13.7Q170.28-13.7 170.28-12.4L170.28-12.4Q170.28-11.6 169.83-9.73 169.38-7.85 168.68-5.8L168.68-5.8Q170.03-7.85 171.7-9.88 173.38-11.9 175.28-13.25 177.18-14.6 179.08-14.6L179.08-14.6Q181.03-14.6 181.9-13.2 182.78-11.8 182.78-10.1L182.78-10.1Q182.78-8.55 182.28-7.23 181.78-5.9 181.25-4.67 180.73-3.45 180.73-2.2L180.73-2.2Q180.73-1.15 181.15-0.73 181.58-0.3 182.23-0.3L182.23-0.3Q183.48-0.3 184.73-1.48 185.98-2.65 187.15-4.45 188.33-6.25 189.23-8.1L189.23-8.1 189.78-7.45Q188.73-5 187.43-3.1 186.13-1.2 184.58-0.1 183.03 1 181.13 1ZM190.18 14L190.18 14Q189.08 14 188.18 13.33 187.28 12.65 187.28 11.1L187.28 11.1Q187.28 9.6 188.2 8.33 189.13 7.05 190.58 5.98 192.03 4.9 193.75 4 195.48 3.1 197.03 2.3L197.03 2.3Q197.73 0.55 198.35-1.48 198.98-3.5 199.58-5.95L199.58-5.95Q197.68-3.2 195.6-1.38 193.53 0.45 191.43 0.45L191.43 0.45Q189.63 0.45 188.65-0.9 187.68-2.25 187.68-4.4L187.68-4.4Q187.68-7 188.95-9.35 190.23-11.7 192.28-13.5 194.33-15.3 196.63-16.32 198.93-17.35 200.93-17.35L200.93-17.35Q202.38-17.35 203-16.88 203.63-16.4 203.63-15.75L203.63-15.75Q203.63-15.3 203.38-15.05 203.13-14.8 203.03-14.75L203.03-14.75Q202.78-15.15 202.28-15.33 201.78-15.5 201.03-15.5L201.03-15.5Q199.08-15.5 197.25-14.35 195.43-13.2 194.03-11.4 192.63-9.6 191.8-7.68 190.98-5.75 190.98-4.15L190.98-4.15Q190.98-2.95 191.45-2.33 191.93-1.7 192.73-1.7L192.73-1.7Q194.18-1.7 196.2-3.63 198.23-5.55 200.13-8.3L200.13-8.3Q200.28-9 200.4-9.55 200.53-10.1 200.73-10.95L200.73-10.95Q200.88-11.65 201.45-12.58 202.03-13.5 203.28-13.5L203.28-13.5Q203.53-13.5 203.78-13.48 204.03-13.45 204.33-13.35L204.33-13.35Q204.33-12.55 203.85-10.43 203.38-8.3 202.5-5.48 201.63-2.65 200.48 0.35L200.48 0.35Q202.13-0.45 203.7-1.7 205.28-2.95 206.58-4.58 207.88-6.2 208.63-8.1L208.63-8.1 209.28-7.6Q208.53-5.35 206.88-3.5 205.23-1.65 203.35-0.3 201.48 1.05 199.93 1.8L199.93 1.8Q198.53 5.15 196.98 7.93 195.43 10.7 193.75 12.35 192.08 14 190.18 14ZM190.03 12.4L190.03 12.4Q191.03 12.4 192.75 10.43 194.48 8.45 196.48 3.65L196.48 3.65Q194.48 4.65 192.75 5.73 191.03 6.8 189.93 8 188.83 9.2 188.83 10.65L188.83 10.65Q188.83 11.45 189.18 11.93 189.53 12.4 190.03 12.4ZM210.07 1.9L210.07 1.9Q209.12 1.9 208.57 0.3 208.02-1.3 208.02-3.3L208.02-3.3Q208.02-5.7 208.82-9 209.62-12.3 210.92-15.95 212.22-19.6 213.85-23.1 215.47-26.6 217.17-29.45 218.87-32.3 220.37-34 221.87-35.7 222.97-35.7L222.97-35.7Q223.87-35.7 224.25-34.63 224.62-33.55 224.62-32.55L224.62-32.55Q224.62-31.15 224-29.15 223.37-27.15 222.27-24.88 221.17-22.6 219.72-20.4 218.27-18.2 216.57-16.38 214.87-14.55 213.12-13.5L213.12-13.5Q212.52-12.05 212.1-10.25 211.67-8.45 211.47-6.73 211.27-5 211.27-3.65L211.27-3.65Q211.27-3.1 211.3-2.7 211.32-2.3 211.37-1.95L211.37-1.95Q212.07-4 212.9-5.93 213.72-7.85 214.67-9.47 215.62-11.1 216.7-12.33 217.77-13.55 218.97-14.23 220.17-14.9 221.52-14.9L221.52-14.9Q222.92-14.9 223.75-14.23 224.57-13.55 224.95-12.53 225.32-11.5 225.32-10.4L225.32-10.4Q225.32-8.85 224.8-7.4 224.27-5.95 223.72-4.6 223.17-3.25 223.17-2L223.17-2Q223.17-1 223.6-0.55 224.02-0.1 224.67-0.1L224.67-0.1Q225.82-0.1 227.25-1.2 228.67-2.3 230.07-4.13 231.47-5.95 232.47-8.1L232.47-8.1 233.12-7.5Q232.07-5.05 230.57-3.08 229.07-1.1 227.27 0.05 225.47 1.2 223.52 1.2L223.52 1.2Q221.82 1.2 220.95 0.3 220.07-0.6 220.07-1.95L220.07-1.95Q220.07-3 220.47-4.3 220.87-5.6 221.25-6.95 221.62-8.3 221.62-9.5L221.62-9.5Q221.62-10.8 221.07-11.35 220.52-11.9 219.72-11.9L219.72-11.9Q218.47-11.9 217.47-10.9 216.47-9.9 215.65-8.33 214.82-6.75 214.1-5 213.37-3.25 212.72-1.68 212.07-0.1 211.42 0.9 210.77 1.9 210.07 1.9ZM213.77-15.45L213.77-15.45Q215.17-16.55 216.5-18.25 217.82-19.95 218.97-21.88 220.12-23.8 221.02-25.65 221.92-27.5 222.42-29 222.92-30.5 222.92-31.25L222.92-31.25Q222.92-31.5 222.87-31.58 222.82-31.65 222.72-31.65L222.72-31.65Q222.37-31.65 221.3-30.28 220.22-28.9 218.82-26.6 217.42-24.3 216.07-21.4 214.72-18.5 213.77-15.45ZM252.67 4.35L252.67 4.35Q251.12 4.35 249.72 3.93 248.32 3.5 247.32 2.1L247.32 2.1Q247.82-0.3 248.54-3.08 249.27-5.85 250.12-8.78 250.97-11.7 251.84-14.53 252.72-17.35 253.52-19.8 254.32-22.25 254.97-24.1 255.62-25.95 255.97-26.9L255.97-26.9Q256.12-27.3 256.47-28.08 256.82-28.85 257.32-29.65 257.82-30.45 258.47-31.03 259.12-31.6 259.87-31.6L259.87-31.6Q260.57-31.6 261.27-31.1L261.27-31.1Q259.72-27.5 258.14-23.15 256.57-18.8 255.12-14.18 253.67-9.55 252.47-5.15 251.27-0.75 250.47 2.85L250.47 2.85Q251.17 2.95 251.64 3 252.12 3.05 252.62 3.05L252.62 3.05Q255.82 3.05 258.79 1.58 261.77 0.1 264.34-2.48 266.92-5.05 268.87-8.38 270.82-11.7 271.89-15.43 272.97-19.15 272.97-22.85L272.97-22.85Q272.97-26.9 271.67-29.53 270.37-32.15 268.07-33.4 265.77-34.65 262.72-34.65L262.72-34.65Q259.47-34.65 256.87-33.35 254.27-32.05 252.77-29.85 251.27-27.65 251.27-24.9L251.27-24.9Q251.27-24.3 251.34-23.85 251.42-23.4 251.52-23.05L251.52-23.05Q249.87-23.05 249.19-23.88 248.52-24.7 248.52-25.85L248.52-25.85Q248.52-27.6 249.74-29.38 250.97-31.15 253.14-32.65 255.32-34.15 258.17-35.08 261.02-36 264.22-36L264.22-36Q268.72-36 271.44-34.18 274.17-32.35 275.42-29.25 276.67-26.15 276.67-22.3L276.67-22.3Q276.67-17.95 275.32-13.98 273.97-10 271.59-6.68 269.22-3.35 266.17-0.88 263.12 1.6 259.64 2.98 256.17 4.35 252.67 4.35ZM282.21 2.2L282.21 2.2Q279.17 2.2 277.64 0.53 276.12-1.15 276.12-3.6L276.12-3.6Q276.12-5.85 277.24-8.35 278.37-10.85 280.24-13.05 282.12-15.25 284.37-16.63 286.62-18 288.81-18L288.81-18Q289.96-18 290.94-17.4 291.92-16.8 291.92-14.95L291.92-14.95Q291.92-13.05 290.79-11.38 289.67-9.7 287.84-8.4 286.01-7.1 283.84-6.28 281.67-5.45 279.51-5.25L279.51-5.25Q279.42-4.75 279.37-4.3 279.31-3.85 279.31-3.45L279.31-3.45Q279.31-2.7 279.49-1.95 279.67-1.2 280.12-0.58 280.56 0.05 281.34 0.4 282.12 0.75 283.26 0.75L283.26 0.75Q285.42 0.75 287.51-0.48 289.62-1.7 291.42-3.7 293.21-5.7 294.46-8.1L294.46-8.1 295.06-7.65Q293.71-4.65 291.64-2.45 289.56-0.25 287.14 0.98 284.71 2.2 282.21 2.2ZM279.76-6.2L279.76-6.2Q281.12-6.65 282.81-7.53 284.51-8.4 286.09-9.6 287.67-10.8 288.69-12.25 289.71-13.7 289.71-15.3L289.71-15.3Q289.71-15.85 289.51-16.15 289.31-16.45 288.67-16.45L288.67-16.45Q287.46-16.45 286.12-15.53 284.76-14.6 283.51-13.1 282.26-11.6 281.26-9.8 280.26-8 279.76-6.2ZM296.91 1.6L296.91 1.6Q294.76 1.6 293.86 0.28 292.96-1.05 292.96-2.95L292.96-2.95Q292.96-4.5 293.46-6.15 293.96-7.8 294.79-9.25 295.61-10.7 296.64-11.6 297.66-12.5 298.71-12.5L298.71-12.5Q298.96-12.5 299.24-12.43 299.51-12.35 299.76-12.25L299.76-12.25Q299.31-11.85 298.69-10.78 298.06-9.7 297.51-8.33 296.96-6.95 296.59-5.6 296.21-4.25 296.21-3.3L296.21-3.3Q296.21-1.8 296.71-1.13 297.21-0.45 298.01-0.45L298.01-0.45Q299.06-0.45 300.51-1.58 301.96-2.7 303.36-4.45L303.36-4.45Q301.96-5.6 301.19-7.48 300.41-9.35 300.41-11.3L300.41-11.3Q300.41-12.95 300.99-14.4 301.56-15.85 302.66-16.73 303.76-17.6 305.31-17.6L305.31-17.6Q307.36-17.6 308.06-16.5 308.76-15.4 308.76-13.75L308.76-13.75Q308.76-11.8 307.81-9.43 306.86-7.05 305.41-4.85L305.41-4.85Q306.31-4.35 307.31-4.35L307.31-4.35Q308.11-4.35 309.11-4.67 310.11-5 311.09-5.8 312.06-6.6 312.66-7.95L312.66-7.95 313.26-7.45Q312.26-5.1 310.44-4.13 308.61-3.15 306.96-3.15L306.96-3.15Q306.31-3.15 305.71-3.28 305.11-3.4 304.56-3.65L304.56-3.65Q302.86-1.4 300.84 0.1 298.81 1.6 296.91 1.6ZM304.26-5.75L304.26-5.75Q305.51-7.6 306.34-9.63 307.16-11.65 307.16-13.45L307.16-13.45Q307.16-14.9 306.74-15.58 306.31-16.25 305.66-16.25L305.66-16.25Q304.66-16.25 303.61-14.8 302.56-13.35 302.56-11.15L302.56-11.15Q302.56-9.7 302.99-8.22 303.41-6.75 304.26-5.75Z" opacity="1" transform="matrix(1,0,0,1,0,0)" fill="#ea2919" class="wordmark-text-0" data-fill-palette-color="primary" id="text-0"></path></svg></g></svg></g></svg></g></svg></g><g></g></svg></g><defs></defs></svg><rect width="395.52" height="63.30345710627401" fill="none" stroke="none" visibility="hidden"></rect></g></svg></g></svg>